#!OML:ASF E:\Mandelcareful walks\Project 1\Capture day 1\Session 1\Subject1.ASF
:FULLY-SPECIFIED
:DEGREES
1513
root 24.0204 15.9599 -0.292363 583.458 -83.1584 499.568
lowerback 29.0057 0.715878 -5.53713
upperback 7.85095 -1.40025 0.401238
thorax -7.01506 -0.962118 4.15856
lowerneck -27.0647 -3.39585 -7.17479
upperneck 31.4384 -2.45801 0.803283
head 15.8098 -1.92878 1.00026
rclavicle 1.55052e-014 -1.0138e-014
rhumerus -27.6275 -1.06916 -85.0016
rradius 76.8064
rwrist -16.5657
rhand -18.2526 -28.793
rfingers 7.12502
rthumb 8.02658 -58.6206
lclavicle 1.55052e-014 -1.0138e-014
lhumerus -18.9716 -26.039 91.3668
lradius 63.2834
lwrist 19.3622
lhand -27.3683 -11.5703
lfingers 7.12502
lthumb -0.775799 18.408
rfemur -35.921 -12.7786 7.21935
rtibia 30.0371
rfoot 6.14635 -8.97989
rtoes -0.543383
lfemur -11.8979 10.6648 -22.1271
ltibia 45.7559
lfoot -32.0894 8.08747
ltoes 6.72494
1514
root 23.923 15.9633 -0.402512 585.482 -83.0552 497.993
lowerback 29.0726 0.551219 -5.31156
upperback 7.6152 -1.52411 0.464187
thorax -7.30507 -0.996342 4.14748
lowerneck -27.3104 -3.40168 -7.0847
upperneck 31.6613 -2.45494 0.698062
head 15.9676 -1.93812 0.936725
rclavicle 9.93923e-016 -4.77083e-015
rhumerus -27.2505 -1.17889 -84.9773
rradius 76.6663
rwrist -16.4319
rhand -18.2614 -28.5256
rfingers 7.12502
rthumb 8.01805 -58.3535
lclavicle 9.93923e-016 -4.77083e-015
lhumerus -19.4204 -25.4748 91.7131
lradius 63.217
lwrist 19.245
lhand -27.7231 -11.3021
lfingers 7.12502
lthumb -1.11851 18.6747
rfemur -36.783 -13.2379 7.64815
rtibia 31.2786
rfoot 5.21112 -8.5304
rtoes 1.45531
lfemur -11.7626 10.4278 -21.982
ltibia 45.2145
lfoot -31.9436 8.26356
ltoes 6.02966
1515
root 23.8122 15.967 -0.508043 585.065 -82.8042 498.46
lowerback 29.4161 0.493037 -4.85868
upperback 7.60703 -1.49773 0.437373
thorax -7.49733 -0.983836 3.858
lowerneck -27.3887 -3.24696 -6.81473
upperneck 31.7631 -2.25162 0.433149
head 16.015 -1.86525 0.818984
rclavicle -2.76311e-014 6.16232e-015
rhumerus -26.671 -1.49696 -85.0216
rradius 76.6346
rwrist -16.1857
rhand -18.0921 -28.2612
rfingers 7.12502
rthumb 8.18147 -58.0828
lclavicle -2.76311e-014 6.16232e-015
lhumerus -19.4493 -25.2845 91.772
lradius 63.1288
lwrist 19.8771
lhand -27.5945 -11.2758
lfingers 7.12502
lthumb -0.99424 18.7016
rfemur -37.1685 -13.3124 8.00579
rtibia 32.4979
rfoot 4.31357 -7.95768
rtoes 2.93886
lfemur -11.0579 10.4302 -21.7227
ltibia 44.651
lfoot -31.9204 8.58401
ltoes 4.93218
1516
root 23.7327 15.9707 -0.627278 589.269 -82.919 494.511
lowerback 29.9703 0.251729 -4.56234
upperback 7.38757 -1.72814 0.512891
thorax -7.99663 -1.0684 3.87481
lowerneck -27.5593 -3.19218 -6.71525
upperneck 31.9386 -2.16839 0.325528
head 16.1311 -1.84021 0.770514
rclavicle 1.55052e-014 -1.27222e-014
rhumerus -26.1244 -1.65276 -84.959
rradius 76.5891
rwrist -16.0951
rhand -18.7654 -29.7563
rfingers 7.12502
rthumb 7.53164 -59.6023
lclavicle 1.55052e-014 -1.27222e-014
lhumerus -19.6173 -24.997 91.9481
lradius 63.0506
lwrist 20.3581
lhand -27.1913 -11.4028
lfingers 7.12502
lthumb -0.604864 18.5761
rfemur -37.6334 -13.584 8.12866
rtibia 33.7251
rfoot 3.20856 -7.80871
rtoes 3.58822
lfemur -10.7885 10.0686 -21.5504
ltibia 44.1772
lfoot -31.6541 8.67056
ltoes 4.01136
1517
root 23.6358 15.967 -0.741268 591.282 -82.8396 492.737
lowerback 30.2446 0.0611861 -4.35182
upperback 7.27676 -1.90404 0.62665
thorax -8.24038 -1.14053 3.95626
lowerneck -27.1928 -2.89343 -6.6544
upperneck 31.8543 -1.71397 0.0980976
head 15.9856 -1.68483 0.762806
rclavicle -1.11319e-014 1.11319e-014
rhumerus -25.5498 -1.52173 -84.8787
rradius 76.6326
rwrist -16.2302
rhand -19.0802 -30.5107
rfingers 7.12502
rthumb 7.2277 -60.3673
lclavicle -1.11319e-014 1.11319e-014
lhumerus -19.7358 -24.4646 92.1462
lradius 62.9164
lwrist 20.4713
lhand -27.1116 -11.1293
lfingers 7.12502
lthumb -0.527864 18.8498
rfemur -38.1342 -13.7239 8.34408
rtibia 34.8951
rfoot 2.10277 -7.54411
rtoes 6.56986
lfemur -10.3552 9.90138 -21.3589
ltibia 43.6953
lfoot -31.6144 8.69863
ltoes 3.74394
1518
root 23.5409 15.9621 -0.854147 593.359 -82.7611 490.971
lowerback 30.3078 -0.117771 -4.10318
upperback 7.26733 -2.04768 0.727023
thorax -8.27294 -1.20936 3.97939
lowerneck -27.6021 -2.73044 -6.34719
upperneck 32.0817 -1.43475 -0.295852
head 16.1692 -1.59896 0.594397
rclavicle 1.13307e-014 7.15625e-015
rhumerus -24.885 -1.56561 -84.7762
rradius 76.5603
rwrist -16.2761
rhand -18.9839 -29.5308
rfingers 7.12502
rthumb 7.32071 -59.3842
lclavicle 1.13307e-014 7.15625e-015
lhumerus -19.5235 -24.2352 92.2445
lradius 62.5041
lwrist 20.4628
lhand -27.4281 -11.2096
lfingers 7.12502
lthumb -0.833601 18.7685
rfemur -38.7162 -13.8832 8.57225
rtibia 36.0406
rfoot 1.05123 -7.37143
rtoes 6.9216
lfemur -10.0748 9.70903 -21.1761
ltibia 43.2362
lfoot -31.568 8.76291
ltoes 3.49621
1519
root 23.4455 15.9664 -0.966211 595.967 -82.6956 488.739
lowerback 30.2543 -0.272443 -3.79449
upperback 7.23482 -2.13497 0.79615
thorax -8.28517 -1.25047 3.90822
lowerneck -27.7612 -2.5239 -5.91754
upperneck 32.2061 -1.15185 -0.748105
head 16.2476 -1.50366 0.383079
rclavicle 2.74323e-014 3.02153e-014
rhumerus -24.2737 -1.83278 -84.6476
rradius 76.419
rwrist -16.1818
rhand -18.8218 -28.7077
rfingers 7.12502
rthumb 7.47712 -58.5556
lclavicle 2.74323e-014 3.02153e-014
lhumerus -19.3611 -24.2445 92.3593
lradius 62.1341
lwrist 20.1171
lhand -27.6259 -11.7515
lfingers 7.12502
lthumb -1.02461 18.2257
rfemur -39.3176 -14.1872 8.82611
rtibia 37.136
rfoot 0.0847887 -7.19471
rtoes 7.05943
lfemur -9.89473 9.53358 -21.004
ltibia 42.7557
lfoot -31.4745 8.68877
ltoes 3.04057
1520
root 23.341 15.9692 -1.0772 598.149 -82.4536 486.855
lowerback 30.2003 -0.375704 -3.60971
upperback 7.19048 -2.19819 0.833364
thorax -8.30977 -1.27812 3.86456
lowerneck -27.7786 -2.35077 -5.66992
upperneck 32.3288 -0.908337 -1.04284
head 16.3009 -1.42444 0.263279
rclavicle -2.5842e-014 1.98785e-015
rhumerus -23.7941 -2.01717 -84.5089
rradius 76.3877
rwrist -16.0593
rhand -18.7141 -28.4872
rfingers 7.12502
rthumb 7.58108 -58.3313
lclavicle -2.5842e-014 1.98785e-015
lhumerus -19.3084 -24.272 92.5392
lradius 61.991
lwrist 19.9011
lhand -27.5612 -11.7756
lfingers 7.12502
lthumb -0.962072 18.2019
rfemur -39.8526 -14.4772 8.97692
rtibia 38.2158
rfoot -0.809822 -6.94803
rtoes 7.23023
lfemur -9.56119 9.51342 -20.9551
ltibia 42.2597
lfoot -31.4369 8.57109
ltoes 2.09298
1521
root 23.2378 15.9671 -1.19044 600.561 -82.1199 484.662
lowerback 30.1955 -0.469291 -3.63863
upperback 7.18236 -2.31736 0.89861
thorax -8.30184 -1.33281 3.99726
lowerneck -27.6918 -2.13497 -5.57895
upperneck 32.3819 -0.548177 -1.30641
head 16.2978 -1.3119 0.210145
rclavicle -2.66371e-014 1.70955e-014
rhumerus -23.182 -2.04855 -84.3633
rradius 76.1686
rwrist -15.9463
rhand -18.732 -27.7547
rfingers 7.12502
rthumb 7.56385 -57.5995
lclavicle -2.66371e-014 1.70955e-014
lhumerus -19.2361 -24.2623 92.7297
lradius 61.9331
lwrist 19.9654
lhand -27.4859 -11.5783
lfingers 7.12502
lthumb -0.889396 18.3996
rfemur -40.3004 -14.6638 8.96461
rtibia 39.3023
rfoot -1.73867 -6.80433
rtoes 7.54735
lfemur -9.13437 9.56231 -20.9973
ltibia 41.7481
lfoot -31.383 8.51045
ltoes 0.791143
